<svg width="1000" height="1330" viewBox="0 0 1000 1330" fill="none" xmlns="http://www.w3.org/2000/svg">
<g clip-path="url(#clip0_2_26)">
<rect width="1007" height="610" fill="#F5F6F7"/>
<rect width="1007" height="610" fill="url(#paint0_radial_2_26)"/>
<rect width="1007" height="610" fill="url(#paint1_radial_2_26)" fill-opacity="0.2"/>
<rect x="198" y="711" width="577" height="482" fill="#F5F6F7"/>
<rect x="198" y="711" width="577" height="482" fill="url(#paint2_radial_2_26)"/>
<rect x="198" y="711" width="577" height="482" fill="url(#paint3_radial_2_26)" fill-opacity="0.5"/>
<path d="M195.249 115.681C195.612 116.362 195.943 117.075 196.242 117.82C196.563 118.544 196.873 119.279 197.172 120.024C197.471 119.257 197.78 118.502 198.101 117.757C198.422 117.011 198.763 116.298 199.126 115.617L212.843 90.0383C213.014 89.719 213.185 89.4635 213.356 89.2719C213.549 89.0804 213.751 88.9419 213.965 88.8568C214.2 88.7716 214.456 88.7184 214.734 88.6971C215.012 88.6758 215.343 88.6652 215.727 88.6652H222.233V134.841H214.638V105.015C214.638 104.462 214.649 103.855 214.67 103.195C214.713 102.535 214.766 101.864 214.83 101.183L200.825 127.369C200.505 127.965 200.089 128.433 199.575 128.774C199.062 129.093 198.464 129.253 197.78 129.253H196.595C195.911 129.253 195.313 129.093 194.8 128.774C194.287 128.433 193.871 127.965 193.55 127.369L179.353 101.087C179.439 101.79 179.492 102.482 179.513 103.163C179.556 103.823 179.577 104.44 179.577 105.015V134.841H171.982V88.6652H178.487C178.872 88.6652 179.204 88.6758 179.481 88.6971C179.759 88.7184 180.004 88.7716 180.218 88.8568C180.453 88.9419 180.667 89.0804 180.859 89.2719C181.051 89.4635 181.233 89.719 181.404 90.0383L195.249 115.681Z" fill="#20252B"/>
<path d="M244.711 101.566C246.784 101.566 248.685 101.896 250.416 102.556C252.168 103.216 253.674 104.185 254.935 105.462C256.195 106.718 257.178 108.272 257.883 110.124C258.588 111.955 258.941 114.052 258.941 116.415C258.941 117.011 258.909 117.512 258.844 117.916C258.802 118.299 258.705 118.608 258.556 118.842C258.428 119.055 258.246 119.215 258.012 119.321C257.777 119.406 257.477 119.449 257.114 119.449H236.795C237.03 122.813 237.938 125.282 239.52 126.858C241.101 128.433 243.195 129.221 245.801 129.221C247.083 129.221 248.183 129.072 249.102 128.774C250.042 128.475 250.854 128.146 251.537 127.784C252.243 127.422 252.852 127.092 253.365 126.794C253.899 126.496 254.411 126.347 254.902 126.347C255.223 126.347 255.501 126.411 255.736 126.538C255.971 126.666 256.174 126.847 256.345 127.081L258.652 129.955C257.777 130.977 256.794 131.839 255.703 132.542C254.614 133.223 253.471 133.776 252.274 134.202C251.1 134.607 249.892 134.894 248.653 135.064C247.435 135.235 246.25 135.32 245.096 135.32C242.81 135.32 240.684 134.947 238.719 134.202C236.753 133.436 235.044 132.318 233.59 130.849C232.138 129.359 230.995 127.528 230.161 125.357C229.328 123.164 228.912 120.631 228.912 117.757C228.912 115.521 229.275 113.424 230.001 111.466C230.727 109.486 231.764 107.772 233.11 106.324C234.477 104.855 236.133 103.695 238.077 102.844C240.043 101.992 242.254 101.566 244.711 101.566ZM244.871 107.218C242.564 107.218 240.758 107.868 239.456 109.166C238.152 110.465 237.319 112.307 236.956 114.691H251.826C251.826 113.669 251.687 112.711 251.409 111.817C251.132 110.901 250.704 110.103 250.127 109.422C249.551 108.741 248.824 108.208 247.948 107.825C247.072 107.421 246.047 107.218 244.871 107.218Z" fill="#20252B"/>
<path d="M265.362 134.841V102.077H270.201C271.227 102.077 271.9 102.556 272.22 103.514L272.733 105.941C273.31 105.302 273.908 104.717 274.528 104.185C275.168 103.653 275.842 103.195 276.547 102.812C277.273 102.428 278.043 102.13 278.854 101.918C279.688 101.683 280.595 101.566 281.578 101.566C283.651 101.566 285.349 102.13 286.674 103.259C288.02 104.366 289.024 105.845 289.686 107.697C290.199 106.612 290.84 105.686 291.609 104.919C292.378 104.132 293.223 103.493 294.141 103.003C295.06 102.514 296.032 102.152 297.057 101.918C298.104 101.683 299.151 101.566 300.198 101.566C302.014 101.566 303.627 101.843 305.038 102.397C306.448 102.95 307.633 103.759 308.595 104.824C309.556 105.888 310.282 107.187 310.774 108.719C311.287 110.252 311.544 112.008 311.544 113.988V134.841H303.627V113.988C303.627 111.902 303.168 110.337 302.249 109.294C301.33 108.23 299.984 107.697 298.211 107.697C297.399 107.697 296.641 107.836 295.935 108.113C295.252 108.389 294.643 108.794 294.109 109.326C293.597 109.837 293.19 110.486 292.891 111.274C292.592 112.062 292.442 112.967 292.442 113.988V134.841H284.494V113.988C284.494 111.796 284.046 110.199 283.148 109.198C282.273 108.198 280.969 107.697 279.239 107.697C278.107 107.697 277.038 107.985 276.033 108.56C275.051 109.113 274.132 109.88 273.277 110.859V134.841H265.362Z" fill="#20252B"/>
<path d="M319.414 134.841V87.3878H327.33V106.101C328.633 104.717 330.108 103.621 331.753 102.812C333.398 101.981 335.321 101.566 337.522 101.566C339.316 101.566 340.951 101.939 342.425 102.684C343.92 103.408 345.202 104.472 346.271 105.877C347.36 107.282 348.193 109.017 348.77 111.082C349.368 113.147 349.667 115.521 349.667 118.204C349.667 120.652 349.337 122.919 348.674 125.005C348.011 127.092 347.061 128.901 345.822 130.434C344.604 131.967 343.119 133.17 341.367 134.043C339.636 134.894 337.692 135.32 335.534 135.32C334.53 135.32 333.611 135.213 332.778 135.001C331.945 134.809 331.186 134.532 330.502 134.17C329.819 133.808 329.178 133.372 328.58 132.861C328.003 132.329 327.447 131.743 326.913 131.105L326.561 133.308C326.433 133.862 326.208 134.255 325.888 134.49C325.588 134.724 325.172 134.841 324.638 134.841H319.414ZM334.797 107.697C333.152 107.697 331.742 108.049 330.567 108.751C329.413 109.432 328.334 110.401 327.33 111.657V126.347C328.227 127.454 329.199 128.231 330.246 128.678C331.315 129.103 332.468 129.316 333.708 129.316C334.904 129.316 335.983 129.093 336.944 128.646C337.905 128.199 338.718 127.517 339.38 126.602C340.064 125.687 340.588 124.537 340.951 123.153C341.314 121.748 341.495 120.098 341.495 118.204C341.495 116.288 341.335 114.67 341.015 113.35C340.715 112.008 340.278 110.923 339.7 110.093C339.123 109.262 338.419 108.655 337.586 108.272C336.774 107.889 335.844 107.697 334.797 107.697Z" fill="#20252B"/>
<path d="M369.461 101.566C371.533 101.566 373.435 101.896 375.166 102.556C376.918 103.216 378.424 104.185 379.684 105.462C380.945 106.718 381.928 108.272 382.633 110.124C383.338 111.955 383.691 114.052 383.691 116.415C383.691 117.011 383.658 117.512 383.594 117.916C383.552 118.299 383.456 118.608 383.306 118.842C383.178 119.055 382.996 119.215 382.761 119.321C382.526 119.406 382.227 119.449 381.864 119.449H361.545C361.781 122.813 362.689 125.282 364.269 126.858C365.85 128.433 367.944 129.221 370.551 129.221C371.833 129.221 372.934 129.072 373.852 128.774C374.792 128.475 375.604 128.146 376.288 127.784C376.992 127.422 377.601 127.092 378.114 126.794C378.648 126.496 379.161 126.347 379.653 126.347C379.973 126.347 380.251 126.411 380.486 126.538C380.72 126.666 380.924 126.847 381.094 127.081L383.403 129.955C382.526 130.977 381.543 131.839 380.454 132.542C379.365 133.223 378.221 133.776 377.025 134.202C375.85 134.607 374.643 134.894 373.403 135.064C372.186 135.235 370.999 135.32 369.846 135.32C367.559 135.32 365.434 134.947 363.468 134.202C361.502 133.436 359.793 132.318 358.341 130.849C356.888 129.359 355.744 127.528 354.912 125.357C354.078 123.164 353.661 120.631 353.661 117.757C353.661 115.521 354.024 113.424 354.751 111.466C355.478 109.486 356.514 107.772 357.86 106.324C359.227 104.855 360.883 103.695 362.828 102.844C364.793 101.992 367.004 101.566 369.461 101.566ZM369.622 107.218C367.314 107.218 365.509 107.868 364.205 109.166C362.902 110.465 362.069 112.307 361.706 114.691H376.576C376.576 113.669 376.437 112.711 376.159 111.817C375.881 110.901 375.454 110.103 374.878 109.422C374.3 108.741 373.574 108.208 372.698 107.825C371.822 107.421 370.796 107.218 369.622 107.218Z" fill="#20252B"/>
<path d="M390.112 134.841V102.077H394.759C395.571 102.077 396.137 102.226 396.457 102.524C396.778 102.822 396.992 103.333 397.098 104.057L397.579 108.017C398.754 105.994 400.132 104.398 401.714 103.227C403.294 102.056 405.068 101.47 407.033 101.47C408.657 101.47 410.003 101.843 411.071 102.588L410.046 108.496C409.982 108.879 409.843 109.156 409.629 109.326C409.416 109.475 409.127 109.55 408.764 109.55C408.444 109.55 408.005 109.475 407.45 109.326C406.894 109.177 406.157 109.102 405.238 109.102C403.593 109.102 402.183 109.56 401.008 110.476C399.833 111.37 398.84 112.69 398.028 114.435V134.841H390.112Z" fill="#20252B"/>
<path d="M416.372 134.841V87.3878H424.288V106.101C425.591 104.717 427.065 103.621 428.711 102.812C430.356 101.981 432.278 101.566 434.479 101.566C436.274 101.566 437.908 101.939 439.382 102.684C440.878 103.408 442.16 104.472 443.229 105.877C444.318 107.282 445.151 109.017 445.729 111.082C446.327 113.147 446.626 115.521 446.626 118.204C446.626 120.652 446.294 122.919 445.632 125.005C444.97 127.092 444.019 128.901 442.78 130.434C441.562 131.967 440.077 133.17 438.326 134.043C436.595 134.894 434.651 135.32 432.493 135.32C431.488 135.32 430.569 135.213 429.736 135.001C428.903 134.809 428.145 134.532 427.461 134.17C426.777 133.808 426.137 133.372 425.538 132.861C424.961 132.329 424.406 131.743 423.872 131.105L423.519 133.308C423.39 133.862 423.166 134.255 422.846 134.49C422.547 134.724 422.13 134.841 421.596 134.841H416.372ZM431.755 107.697C430.11 107.697 428.7 108.049 427.525 108.751C426.371 109.432 425.292 110.401 424.288 111.657V126.347C425.185 127.454 426.157 128.231 427.204 128.678C428.273 129.103 429.427 129.316 430.666 129.316C431.862 129.316 432.941 129.093 433.903 128.646C434.864 128.199 435.676 127.517 436.338 126.602C437.022 125.687 437.545 124.537 437.908 123.153C438.272 121.748 438.453 120.098 438.453 118.204C438.453 116.288 438.293 114.67 437.972 113.35C437.673 112.008 437.235 110.923 436.659 110.093C436.082 109.262 435.377 108.655 434.543 108.272C433.732 107.889 432.802 107.697 431.755 107.697Z" fill="#20252B"/>
<path d="M478.598 134.841H475.04C474.292 134.841 473.705 134.734 473.278 134.522C472.85 134.287 472.53 133.83 472.317 133.148L471.611 130.817C470.778 131.562 469.955 132.222 469.144 132.797C468.353 133.351 467.531 133.819 466.676 134.202C465.821 134.585 464.914 134.873 463.951 135.064C462.99 135.256 461.922 135.352 460.747 135.352C459.358 135.352 458.076 135.171 456.901 134.809C455.726 134.426 454.711 133.862 453.856 133.117C453.024 132.371 452.371 131.445 451.902 130.338C451.432 129.231 451.197 127.943 451.197 126.474C451.197 125.24 451.517 124.026 452.158 122.834C452.82 121.62 453.91 120.535 455.427 119.577C456.944 118.597 458.963 117.788 461.484 117.15C464.005 116.511 467.135 116.149 470.874 116.064V114.148C470.874 111.955 470.404 110.337 469.464 109.294C468.545 108.23 467.199 107.697 465.426 107.697C464.144 107.697 463.076 107.846 462.222 108.145C461.367 108.443 460.619 108.783 459.978 109.166C459.358 109.528 458.782 109.858 458.247 110.156C457.713 110.454 457.126 110.603 456.484 110.603C455.95 110.603 455.491 110.465 455.107 110.188C454.722 109.912 454.412 109.571 454.177 109.166L452.734 106.644C456.517 103.195 461.078 101.47 466.419 101.47C468.343 101.47 470.052 101.79 471.547 102.428C473.064 103.046 474.346 103.919 475.393 105.047C476.439 106.154 477.23 107.485 477.765 109.039C478.32 110.593 478.598 112.296 478.598 114.148V134.841ZM463.214 129.923C464.026 129.923 464.774 129.849 465.458 129.7C466.142 129.551 466.783 129.327 467.381 129.029C468 128.731 468.588 128.369 469.144 127.943C469.72 127.496 470.298 126.975 470.874 126.379V120.854C468.567 120.96 466.633 121.163 465.073 121.461C463.535 121.738 462.296 122.099 461.356 122.546C460.416 122.994 459.743 123.515 459.337 124.111C458.952 124.707 458.76 125.357 458.76 126.059C458.76 127.443 459.165 128.433 459.978 129.029C460.811 129.625 461.89 129.923 463.214 129.923Z" fill="#20252B"/>
<path d="M505.899 108.464C505.685 108.804 505.461 109.049 505.226 109.198C504.991 109.326 504.692 109.39 504.328 109.39C503.944 109.39 503.527 109.284 503.079 109.071C502.651 108.858 502.149 108.624 501.572 108.368C500.996 108.091 500.333 107.847 499.585 107.634C498.859 107.421 497.994 107.314 496.989 107.314C495.43 107.314 494.201 107.644 493.303 108.304C492.406 108.964 491.957 109.826 491.957 110.891C491.957 111.593 492.182 112.189 492.63 112.679C493.101 113.148 493.71 113.563 494.458 113.924C495.227 114.286 496.092 114.616 497.053 114.914C498.015 115.191 498.997 115.5 500.002 115.841C501.006 116.181 501.989 116.575 502.95 117.022C503.912 117.448 504.766 118.001 505.514 118.683C506.283 119.343 506.893 120.141 507.341 121.078C507.811 122.014 508.046 123.143 508.046 124.463C508.046 126.038 507.757 127.496 507.181 128.837C506.604 130.157 505.76 131.307 504.649 132.286C503.538 133.244 502.16 134 500.515 134.554C498.891 135.086 497.022 135.352 494.906 135.352C493.774 135.352 492.663 135.245 491.574 135.032C490.505 134.841 489.469 134.564 488.464 134.202C487.482 133.84 486.563 133.415 485.708 132.925C484.875 132.435 484.138 131.903 483.497 131.328L485.324 128.326C485.559 127.965 485.836 127.688 486.157 127.496C486.478 127.305 486.883 127.209 487.375 127.209C487.866 127.209 488.326 127.347 488.753 127.624C489.201 127.901 489.714 128.199 490.292 128.518C490.868 128.837 491.541 129.135 492.311 129.412C493.101 129.689 494.094 129.827 495.291 129.827C496.231 129.827 497.033 129.721 497.695 129.508C498.379 129.274 498.934 128.976 499.361 128.614C499.809 128.252 500.13 127.837 500.323 127.368C500.536 126.879 500.643 126.379 500.643 125.868C500.643 125.101 500.407 124.473 499.938 123.984C499.489 123.494 498.88 123.068 498.111 122.706C497.363 122.344 496.498 122.025 495.515 121.748C494.554 121.45 493.56 121.131 492.535 120.79C491.53 120.45 490.537 120.056 489.555 119.609C488.592 119.14 487.727 118.555 486.958 117.852C486.21 117.15 485.601 116.288 485.132 115.266C484.683 114.244 484.459 113.009 484.459 111.561C484.459 110.22 484.725 108.943 485.26 107.729C485.794 106.516 486.573 105.462 487.6 104.568C488.646 103.653 489.938 102.929 491.477 102.397C493.037 101.843 494.831 101.566 496.861 101.566C499.126 101.566 501.188 101.939 503.046 102.684C504.905 103.429 506.455 104.408 507.693 105.622L505.899 108.464Z" fill="#20252B"/>
<path d="M527.95 101.566C530.022 101.566 531.924 101.896 533.654 102.556C535.406 103.216 536.912 104.185 538.173 105.462C539.433 106.718 540.416 108.272 541.122 110.124C541.826 111.955 542.179 114.052 542.179 116.415C542.179 117.011 542.147 117.512 542.083 117.916C542.04 118.299 541.944 118.608 541.795 118.842C541.666 119.055 541.485 119.215 541.249 119.321C541.014 119.406 540.715 119.449 540.352 119.449H520.034C520.269 122.813 521.176 125.282 522.757 126.858C524.339 128.433 526.432 129.221 529.039 129.221C530.321 129.221 531.421 129.072 532.34 128.774C533.281 128.475 534.092 128.146 534.776 127.784C535.481 127.422 536.09 127.092 536.602 126.794C537.137 126.496 537.649 126.347 538.141 126.347C538.461 126.347 538.739 126.411 538.974 126.538C539.209 126.666 539.412 126.847 539.583 127.081L541.89 129.955C541.014 130.977 540.031 131.839 538.942 132.542C537.852 133.223 536.71 133.776 535.513 134.202C534.337 134.607 533.131 134.894 531.891 135.064C530.673 135.235 529.488 135.32 528.334 135.32C526.048 135.32 523.922 134.947 521.956 134.202C519.991 133.436 518.281 132.318 516.829 130.849C515.376 129.359 514.233 127.528 513.399 125.357C512.567 123.164 512.15 120.631 512.15 117.757C512.15 115.521 512.513 113.424 513.24 111.466C513.966 109.486 515.002 107.772 516.348 106.324C517.716 104.855 519.372 103.695 521.316 102.844C523.281 101.992 525.493 101.566 527.95 101.566ZM528.11 107.218C525.803 107.218 523.997 107.868 522.693 109.166C521.391 110.465 520.557 112.307 520.194 114.691H535.064C535.064 113.669 534.926 112.711 534.647 111.817C534.37 110.901 533.943 110.103 533.365 109.422C532.789 108.741 532.062 108.208 531.187 107.825C530.31 107.421 529.285 107.218 528.11 107.218Z" fill="#20252B"/>
<path d="M95.0265 106.172L70 133.538L138.699 150.037C143.199 151.118 146.891 146.431 144.77 142.332L131.565 116.814L144.178 79.2108L86.7318 72.3274C82.406 71.8091 79.2737 76.3416 81.3025 80.1835L95.0265 106.172Z" fill="#20252B"/>
<path d="M94.2005 384H72.3577V319.542H94.6411C101.041 319.542 106.538 320.832 111.133 323.413C115.75 325.973 119.296 329.655 121.771 334.46C124.247 339.265 125.485 345.015 125.485 351.708C125.485 358.422 124.237 364.193 121.74 369.018C119.264 373.844 115.687 377.548 111.007 380.129C106.349 382.71 100.747 384 94.2005 384ZM84.0345 373.897H93.634C98.1242 373.897 101.87 373.079 104.87 371.442C107.871 369.784 110.126 367.319 111.637 364.046C113.148 360.751 113.903 356.639 113.903 351.708C113.903 346.777 113.148 342.685 111.637 339.433C110.126 336.16 107.892 333.715 104.933 332.1C101.995 330.463 98.3445 329.645 93.9802 329.645H84.0345V373.897ZM136.076 384V335.656H147.47V384H136.076ZM141.805 328.795C140 328.795 138.447 328.197 137.146 327.001C135.846 325.784 135.195 324.326 135.195 322.626C135.195 320.906 135.846 319.447 137.146 318.251C138.447 317.034 140 316.426 141.805 316.426C143.63 316.426 145.183 317.034 146.463 318.251C147.764 319.447 148.414 320.906 148.414 322.626C148.414 324.326 147.764 325.784 146.463 327.001C145.183 328.197 143.63 328.795 141.805 328.795ZM180.21 403.136C176.119 403.136 172.604 402.58 169.667 401.468C166.729 400.377 164.369 398.908 162.585 397.062C160.802 395.215 159.564 393.169 158.871 390.924L169.132 388.438C169.593 389.382 170.265 390.316 171.146 391.239C172.027 392.183 173.213 392.96 174.702 393.568C176.213 394.197 178.112 394.512 180.399 394.512C183.631 394.512 186.306 393.725 188.425 392.152C190.544 390.599 191.604 388.039 191.604 384.472V375.313H191.037C190.45 376.488 189.59 377.695 188.457 378.933C187.344 380.171 185.865 381.209 184.019 382.049C182.193 382.888 179.896 383.308 177.126 383.308C173.412 383.308 170.044 382.437 167.023 380.695C164.022 378.933 161.63 376.31 159.847 372.827C158.084 369.323 157.203 364.937 157.203 359.671C157.203 354.362 158.084 349.882 159.847 346.231C161.63 342.56 164.033 339.779 167.054 337.891C170.076 335.982 173.444 335.027 177.157 335.027C179.99 335.027 182.319 335.509 184.145 336.475C185.991 337.419 187.46 338.562 188.551 339.905C189.642 341.227 190.471 342.476 191.037 343.651H191.667V335.656H202.903V384.787C202.903 388.92 201.917 392.341 199.944 395.047C197.972 397.754 195.276 399.779 191.856 401.122C188.436 402.465 184.554 403.136 180.21 403.136ZM180.305 374.369C182.718 374.369 184.774 373.782 186.474 372.607C188.173 371.431 189.464 369.742 190.345 367.539C191.226 365.336 191.667 362.692 191.667 359.608C191.667 356.565 191.226 353.901 190.345 351.614C189.485 349.326 188.205 347.553 186.505 346.294C184.827 345.015 182.76 344.375 180.305 344.375C177.766 344.375 175.647 345.035 173.947 346.357C172.248 347.679 170.968 349.494 170.107 351.802C169.247 354.089 168.817 356.691 168.817 359.608C168.817 362.566 169.247 365.158 170.107 367.382C170.989 369.585 172.279 371.306 173.979 372.544C175.699 373.761 177.808 374.369 180.305 374.369ZM214.58 384V335.656H225.973V384H214.58ZM220.308 328.795C218.503 328.795 216.951 328.197 215.65 327.001C214.349 325.784 213.698 324.326 213.698 322.626C213.698 320.906 214.349 319.447 215.65 318.251C216.951 317.034 218.503 316.426 220.308 316.426C222.133 316.426 223.686 317.034 224.966 318.251C226.267 319.447 226.917 320.906 226.917 322.626C226.917 324.326 226.267 325.784 224.966 327.001C223.686 328.197 222.133 328.795 220.308 328.795ZM261.83 335.656V344.469H234.038V335.656H261.83ZM240.9 324.074H252.293V369.459C252.293 370.991 252.524 372.166 252.986 372.984C253.468 373.782 254.098 374.327 254.874 374.621C255.65 374.915 256.511 375.061 257.455 375.061C258.168 375.061 258.819 375.009 259.406 374.904C260.015 374.799 260.476 374.705 260.791 374.621L262.711 383.528C262.102 383.738 261.232 383.969 260.099 384.22C258.987 384.472 257.623 384.619 256.007 384.661C253.153 384.745 250.583 384.315 248.296 383.371C246.009 382.405 244.194 380.916 242.851 378.901C241.529 376.887 240.879 374.369 240.9 371.348V324.074ZM285.27 384.976C282.206 384.976 279.447 384.43 276.992 383.339C274.558 382.227 272.628 380.59 271.201 378.429C269.795 376.268 269.092 373.603 269.092 370.435C269.092 367.707 269.596 365.451 270.603 363.668C271.61 361.884 272.985 360.458 274.726 359.388C276.468 358.317 278.429 357.51 280.612 356.964C282.815 356.398 285.091 355.988 287.441 355.737C290.274 355.443 292.572 355.181 294.334 354.95C296.097 354.698 297.377 354.32 298.174 353.817C298.992 353.292 299.401 352.484 299.401 351.393V351.204C299.401 348.833 298.699 346.997 297.293 345.696C295.887 344.396 293.862 343.745 291.218 343.745C288.428 343.745 286.214 344.354 284.577 345.571C282.962 346.788 281.871 348.225 281.304 349.882L270.666 348.372C271.505 345.434 272.89 342.979 274.82 341.007C276.751 339.014 279.111 337.524 281.902 336.538C284.693 335.53 287.777 335.027 291.155 335.027C293.484 335.027 295.803 335.3 298.111 335.845C300.419 336.391 302.528 337.293 304.437 338.552C306.347 339.79 307.878 341.479 309.032 343.619C310.207 345.759 310.795 348.435 310.795 351.645V384H299.842V377.359H299.464C298.772 378.702 297.796 379.961 296.537 381.136C295.299 382.29 293.736 383.224 291.848 383.937C289.98 384.629 287.788 384.976 285.27 384.976ZM288.228 376.604C290.515 376.604 292.498 376.153 294.177 375.25C295.855 374.327 297.146 373.11 298.048 371.599C298.971 370.089 299.433 368.441 299.433 366.658V360.961C299.076 361.255 298.468 361.528 297.607 361.78C296.768 362.031 295.824 362.252 294.775 362.44C293.726 362.629 292.687 362.797 291.659 362.944C290.631 363.091 289.739 363.217 288.984 363.322C287.284 363.553 285.763 363.93 284.42 364.455C283.077 364.979 282.017 365.714 281.241 366.658C280.465 367.581 280.077 368.777 280.077 370.246C280.077 372.344 280.842 373.928 282.374 374.999C283.906 376.069 285.857 376.604 288.228 376.604ZM333.645 319.542V384H322.251V319.542H333.645ZM381.414 384L363.222 319.542H375.78L387.394 366.91H387.992L400.393 319.542H411.818L424.25 366.941H424.817L436.43 319.542H448.988L430.797 384H419.277L406.373 338.772H405.869L392.934 384H381.414ZM473.05 384.944C468.203 384.944 464.017 383.937 460.492 381.923C456.988 379.887 454.292 377.013 452.403 373.299C450.515 369.564 449.571 365.168 449.571 360.111C449.571 355.139 450.515 350.774 452.403 347.018C454.313 343.241 456.977 340.304 460.398 338.206C463.818 336.086 467.836 335.027 472.452 335.027C475.432 335.027 478.243 335.509 480.887 336.475C483.552 337.419 485.902 338.888 487.937 340.881C489.993 342.874 491.609 345.413 492.784 348.498C493.959 351.561 494.547 355.212 494.547 359.45V362.944H454.921V355.264H483.625C483.604 353.082 483.132 351.141 482.209 349.442C481.286 347.721 479.995 346.368 478.338 345.382C476.701 344.396 474.792 343.902 472.609 343.902C470.28 343.902 468.235 344.469 466.472 345.602C464.709 346.714 463.335 348.183 462.349 350.008C461.384 351.813 460.891 353.796 460.87 355.957V362.661C460.87 365.472 461.384 367.885 462.412 369.9C463.44 371.893 464.877 373.425 466.724 374.495C468.57 375.544 470.731 376.069 473.207 376.069C474.865 376.069 476.365 375.838 477.708 375.376C479.051 374.894 480.216 374.191 481.202 373.267C482.188 372.344 482.933 371.201 483.436 369.837L494.074 371.033C493.403 373.844 492.123 376.299 490.235 378.398C488.367 380.475 485.975 382.091 483.059 383.245C480.142 384.378 476.806 384.944 473.05 384.944ZM515.579 319.542V384H504.185V319.542H515.579ZM538.689 319.542V384H527.295V319.542H538.689ZM550.908 384V319.542H562.302V343.651H562.774C563.361 342.476 564.19 341.227 565.26 339.905C566.33 338.562 567.778 337.419 569.604 336.475C571.429 335.509 573.758 335.027 576.591 335.027C580.326 335.027 583.693 335.982 586.694 337.891C589.715 339.779 592.107 342.581 593.87 346.294C595.653 349.987 596.545 354.52 596.545 359.891C596.545 365.2 595.674 369.711 593.933 373.425C592.191 377.139 589.82 379.971 586.82 381.923C583.819 383.874 580.42 384.85 576.622 384.85C573.853 384.85 571.555 384.388 569.73 383.465C567.904 382.542 566.435 381.43 565.323 380.129C564.232 378.807 563.382 377.558 562.774 376.383H562.113V384H550.908ZM562.081 359.828C562.081 362.955 562.522 365.693 563.403 368.043C564.306 370.393 565.596 372.229 567.275 373.551C568.974 374.852 571.03 375.502 573.443 375.502C575.961 375.502 578.07 374.831 579.77 373.488C581.469 372.124 582.749 370.267 583.609 367.917C584.491 365.546 584.931 362.85 584.931 359.828C584.931 356.828 584.501 354.163 583.641 351.834C582.781 349.505 581.501 347.679 579.801 346.357C578.102 345.035 575.982 344.375 573.443 344.375C571.009 344.375 568.943 345.015 567.243 346.294C565.544 347.574 564.253 349.368 563.372 351.676C562.512 353.985 562.081 356.702 562.081 359.828ZM627.633 384.944C622.786 384.944 618.6 383.937 615.075 381.923C611.571 379.887 608.875 377.013 606.987 373.299C605.098 369.564 604.154 365.168 604.154 360.111C604.154 355.139 605.098 350.774 606.987 347.018C608.896 343.241 611.561 340.304 614.981 338.206C618.401 336.086 622.419 335.027 627.035 335.027C630.015 335.027 632.827 335.509 635.47 336.475C638.135 337.419 640.485 338.888 642.52 340.881C644.577 342.874 646.192 345.413 647.367 348.498C648.542 351.561 649.13 355.212 649.13 359.45V362.944H609.505V355.264H638.209C638.188 353.082 637.716 351.141 636.792 349.442C635.869 347.721 634.579 346.368 632.921 345.382C631.284 344.396 629.375 343.902 627.193 343.902C624.864 343.902 622.818 344.469 621.055 345.602C619.293 346.714 617.919 348.183 616.932 350.008C615.967 351.813 615.474 353.796 615.453 355.957V362.661C615.453 365.472 615.967 367.885 616.995 369.9C618.023 371.893 619.461 373.425 621.307 374.495C623.154 375.544 625.315 376.069 627.791 376.069C629.448 376.069 630.949 375.838 632.292 375.376C633.634 374.894 634.799 374.191 635.785 373.267C636.771 372.344 637.516 371.201 638.02 369.837L648.658 371.033C647.986 373.844 646.707 376.299 644.818 378.398C642.951 380.475 640.559 382.091 637.642 383.245C634.725 384.378 631.389 384.944 627.633 384.944ZM658.769 384V335.656H670.162V384H658.769ZM664.497 328.795C662.693 328.795 661.14 328.197 659.839 327.001C658.538 325.784 657.888 324.326 657.888 322.626C657.888 320.906 658.538 319.447 659.839 318.251C661.14 317.034 662.693 316.426 664.497 316.426C666.322 316.426 667.875 317.034 669.155 318.251C670.456 319.447 671.107 320.906 671.107 322.626C671.107 324.326 670.456 325.784 669.155 327.001C667.875 328.197 666.322 328.795 664.497 328.795ZM693.272 355.674V384H681.878V335.656H692.768V343.871H693.335C694.447 341.164 696.22 339.014 698.654 337.419C701.109 335.824 704.141 335.027 707.75 335.027C711.086 335.027 713.992 335.74 716.468 337.167C718.965 338.594 720.895 340.661 722.259 343.367C723.644 346.074 724.326 349.358 724.305 353.219V384H712.912V354.981C712.912 351.75 712.072 349.222 710.394 347.396C708.736 345.571 706.438 344.658 703.501 344.658C701.508 344.658 699.735 345.098 698.182 345.98C696.65 346.84 695.444 348.088 694.562 349.725C693.702 351.362 693.272 353.345 693.272 355.674ZM756.912 403.136C752.82 403.136 749.306 402.58 746.368 401.468C743.431 400.377 741.07 398.908 739.287 397.062C737.503 395.215 736.265 393.169 735.573 390.924L745.833 388.438C746.295 389.382 746.966 390.316 747.847 391.239C748.729 392.183 749.914 392.96 751.404 393.568C752.915 394.197 754.814 394.512 757.101 394.512C760.332 394.512 763.007 393.725 765.127 392.152C767.246 390.599 768.305 388.039 768.305 384.472V375.313H767.739C767.151 376.488 766.291 377.695 765.158 378.933C764.046 380.171 762.567 381.209 760.72 382.049C758.895 382.888 756.597 383.308 753.827 383.308C750.114 383.308 746.746 382.437 743.724 380.695C740.724 378.933 738.332 376.31 736.548 372.827C734.786 369.323 733.905 364.937 733.905 359.671C733.905 354.362 734.786 349.882 736.548 346.231C738.332 342.56 740.734 339.779 743.756 337.891C746.777 335.982 750.145 335.027 753.859 335.027C756.692 335.027 759.021 335.509 760.846 336.475C762.693 337.419 764.161 338.562 765.252 339.905C766.343 341.227 767.172 342.476 767.739 343.651H768.368V335.656H779.604V384.787C779.604 388.92 778.618 392.341 776.646 395.047C774.674 397.754 771.977 399.779 768.557 401.122C765.137 402.465 761.255 403.136 756.912 403.136ZM757.006 374.369C759.419 374.369 761.476 373.782 763.175 372.607C764.875 371.431 766.165 369.742 767.046 367.539C767.928 365.336 768.368 362.692 768.368 359.608C768.368 356.565 767.928 353.901 767.046 351.614C766.186 349.326 764.906 347.553 763.207 346.294C761.528 345.015 759.461 344.375 757.006 344.375C754.467 344.375 752.348 345.035 750.649 346.357C748.949 347.679 747.669 349.494 746.809 351.802C745.948 354.089 745.518 356.691 745.518 359.608C745.518 362.566 745.948 365.158 746.809 367.382C747.69 369.585 748.98 371.306 750.68 372.544C752.401 373.761 754.509 374.369 757.006 374.369ZM85.7655 491.976C82.7021 491.976 79.9429 491.43 77.4879 490.339C75.0539 489.227 73.1236 487.59 71.6967 485.429C70.2909 483.268 69.588 480.603 69.588 477.435C69.588 474.707 70.0916 472.451 71.0987 470.668C72.1059 468.884 73.4803 467.458 75.2218 466.388C76.9634 465.317 78.9252 464.51 81.1074 463.964C83.3106 463.398 85.5872 462.988 87.9372 462.737C90.7698 462.443 93.0674 462.181 94.83 461.95C96.5925 461.698 97.8724 461.32 98.6698 460.817C99.4881 460.292 99.8972 459.484 99.8972 458.393V458.204C99.8972 455.833 99.1943 453.997 97.7885 452.696C96.3827 451.396 94.3579 450.745 91.7141 450.745C88.9234 450.745 86.7097 451.354 85.0731 452.571C83.4574 453.788 82.3664 455.225 81.7998 456.882L71.1617 455.372C72.001 452.434 73.3858 449.979 75.3162 448.007C77.2466 446.014 79.6072 444.524 82.3978 443.538C85.1885 442.53 88.2729 442.027 91.6511 442.027C93.9802 442.027 96.2987 442.3 98.6068 442.845C100.915 443.391 103.024 444.293 104.933 445.552C106.842 446.79 108.374 448.479 109.528 450.619C110.703 452.759 111.291 455.435 111.291 458.645V491H100.338V484.359H99.9602C99.2678 485.702 98.2921 486.961 97.0331 488.136C95.7952 489.29 94.232 490.224 92.3435 490.937C90.4761 491.629 88.2834 491.976 85.7655 491.976ZM88.7241 483.604C91.0111 483.604 92.994 483.153 94.6726 482.25C96.3512 481.327 97.6416 480.11 98.5439 478.599C99.4671 477.089 99.9287 475.441 99.9287 473.658V467.961C99.572 468.255 98.9635 468.528 98.1032 468.78C97.2639 469.031 96.3197 469.252 95.2706 469.44C94.2215 469.629 93.1828 469.797 92.1547 469.944C91.1265 470.091 90.2348 470.217 89.4794 470.322C87.7798 470.553 86.2586 470.93 84.9157 471.455C83.5728 471.979 82.5132 472.714 81.7369 473.658C80.9605 474.581 80.5723 475.777 80.5723 477.246C80.5723 479.344 81.3382 480.928 82.8699 481.999C84.4017 483.069 86.353 483.604 88.7241 483.604ZM134.141 462.674V491H122.747V442.656H133.637V450.871H134.204C135.316 448.164 137.089 446.014 139.523 444.419C141.978 442.824 145.01 442.027 148.619 442.027C151.955 442.027 154.861 442.74 157.337 444.167C159.834 445.594 161.764 447.661 163.128 450.367C164.513 453.074 165.195 456.358 165.174 460.219V491H153.78V461.981C153.78 458.75 152.941 456.222 151.262 454.396C149.605 452.571 147.307 451.658 144.37 451.658C142.376 451.658 140.603 452.098 139.051 452.98C137.519 453.84 136.312 455.088 135.431 456.725C134.571 458.362 134.141 460.345 134.141 462.674ZM194.696 491.85C190.898 491.85 187.499 490.874 184.499 488.923C181.498 486.971 179.127 484.139 177.386 480.425C175.644 476.711 174.773 472.2 174.773 466.891C174.773 461.52 175.655 456.987 177.417 453.294C179.201 449.581 181.603 446.779 184.625 444.891C187.646 442.982 191.014 442.027 194.728 442.027C197.56 442.027 199.889 442.509 201.715 443.475C203.54 444.419 204.988 445.562 206.058 446.905C207.128 448.227 207.957 449.476 208.545 450.651H209.017V426.542H220.442V491H209.237V483.383H208.545C207.957 484.558 207.107 485.807 205.995 487.129C204.883 488.43 203.414 489.542 201.589 490.465C199.763 491.388 197.466 491.85 194.696 491.85ZM197.875 482.502C200.288 482.502 202.344 481.852 204.044 480.551C205.743 479.229 207.034 477.393 207.915 475.043C208.796 472.693 209.237 469.955 209.237 466.828C209.237 463.702 208.796 460.985 207.915 458.676C207.055 456.368 205.775 454.574 204.075 453.294C202.397 452.015 200.33 451.375 197.875 451.375C195.336 451.375 193.217 452.035 191.517 453.357C189.818 454.679 188.538 456.505 187.678 458.834C186.817 461.163 186.387 463.828 186.387 466.828C186.387 469.85 186.817 472.546 187.678 474.917C188.559 477.267 189.849 479.124 191.549 480.488C193.269 481.831 195.378 482.502 197.875 482.502ZM290.101 444.261C289.807 441.513 288.569 439.373 286.387 437.841C284.226 436.309 281.414 435.543 277.952 435.543C275.518 435.543 273.43 435.91 271.689 436.645C269.947 437.379 268.615 438.376 267.692 439.635C266.768 440.894 266.296 442.331 266.275 443.947C266.275 445.29 266.58 446.454 267.188 447.44C267.818 448.427 268.667 449.266 269.737 449.958C270.808 450.63 271.993 451.196 273.294 451.658C274.595 452.119 275.906 452.508 277.228 452.822L283.271 454.333C285.705 454.9 288.045 455.665 290.29 456.631C292.556 457.596 294.581 458.813 296.364 460.282C298.169 461.75 299.596 463.523 300.645 465.601C301.694 467.678 302.218 470.112 302.218 472.903C302.218 476.679 301.253 480.005 299.323 482.88C297.392 485.733 294.602 487.968 290.951 489.584C287.321 491.178 282.925 491.976 277.763 491.976C272.748 491.976 268.395 491.199 264.702 489.647C261.03 488.094 258.155 485.828 256.078 482.848C254.022 479.869 252.91 476.239 252.742 471.958H264.23C264.397 474.204 265.09 476.071 266.307 477.561C267.524 479.05 269.108 480.163 271.059 480.897C273.032 481.631 275.235 481.999 277.669 481.999C280.208 481.999 282.432 481.621 284.341 480.865C286.272 480.089 287.782 479.019 288.874 477.655C289.965 476.27 290.521 474.655 290.542 472.808C290.521 471.13 290.028 469.745 289.062 468.654C288.097 467.542 286.744 466.618 285.002 465.884C283.282 465.129 281.267 464.457 278.959 463.87L271.626 461.981C266.317 460.617 262.121 458.551 259.036 455.781C255.973 452.99 254.441 449.287 254.441 444.671C254.441 440.873 255.469 437.547 257.526 434.693C259.603 431.84 262.425 429.626 265.992 428.052C269.559 426.458 273.598 425.66 278.109 425.66C282.684 425.66 286.691 426.458 290.132 428.052C293.595 429.626 296.312 431.819 298.284 434.631C300.257 437.421 301.274 440.632 301.337 444.261H290.101ZM342.938 470.668V442.656H354.331V491H343.284V482.408H342.78C341.689 485.114 339.895 487.328 337.398 489.049C334.922 490.769 331.869 491.629 328.239 491.629C325.071 491.629 322.27 490.927 319.836 489.521C317.423 488.094 315.534 486.027 314.171 483.32C312.807 480.593 312.125 477.298 312.125 473.438V442.656H323.518V471.675C323.518 474.739 324.358 477.173 326.036 478.977C327.715 480.782 329.918 481.684 332.646 481.684C334.324 481.684 335.95 481.275 337.524 480.456C339.098 479.638 340.388 478.421 341.395 476.805C342.423 475.169 342.938 473.123 342.938 470.668ZM366.047 509.129V442.656H377.252V450.651H377.913C378.5 449.476 379.329 448.227 380.399 446.905C381.469 445.562 382.917 444.419 384.743 443.475C386.568 442.509 388.897 442.027 391.73 442.027C395.465 442.027 398.832 442.982 401.833 444.891C404.854 446.779 407.246 449.581 409.009 453.294C410.792 456.987 411.684 461.52 411.684 466.891C411.684 472.2 410.813 476.711 409.072 480.425C407.33 484.139 404.959 486.971 401.959 488.923C398.958 490.874 395.559 491.85 391.761 491.85C388.992 491.85 386.694 491.388 384.868 490.465C383.043 489.542 381.574 488.43 380.462 487.129C379.371 485.807 378.521 484.558 377.913 483.383H377.441V509.129H366.047ZM377.22 466.828C377.22 469.955 377.661 472.693 378.542 475.043C379.445 477.393 380.735 479.229 382.414 480.551C384.113 481.852 386.169 482.502 388.582 482.502C391.1 482.502 393.209 481.831 394.909 480.488C396.608 479.124 397.888 477.267 398.748 474.917C399.63 472.546 400.07 469.85 400.07 466.828C400.07 463.828 399.64 461.163 398.78 458.834C397.92 456.505 396.64 454.679 394.94 453.357C393.24 452.035 391.121 451.375 388.582 451.375C386.148 451.375 384.082 452.015 382.382 453.294C380.682 454.574 379.392 456.368 378.511 458.676C377.65 460.985 377.22 463.702 377.22 466.828ZM421.441 509.129V442.656H432.646V450.651H433.307C433.894 449.476 434.723 448.227 435.793 446.905C436.863 445.562 438.311 444.419 440.136 443.475C441.962 442.509 444.291 442.027 447.124 442.027C450.858 442.027 454.226 442.982 457.227 444.891C460.248 446.779 462.64 449.581 464.403 453.294C466.186 456.987 467.078 461.52 467.078 466.891C467.078 472.2 466.207 476.711 464.466 480.425C462.724 484.139 460.353 486.971 457.353 488.923C454.352 490.874 450.953 491.85 447.155 491.85C444.385 491.85 442.088 491.388 440.262 490.465C438.437 489.542 436.968 488.43 435.856 487.129C434.765 485.807 433.915 484.558 433.307 483.383H432.834V509.129H421.441ZM432.614 466.828C432.614 469.955 433.055 472.693 433.936 475.043C434.838 477.393 436.129 479.229 437.807 480.551C439.507 481.852 441.563 482.502 443.976 482.502C446.494 482.502 448.603 481.831 450.302 480.488C452.002 479.124 453.282 477.267 454.142 474.917C455.023 472.546 455.464 469.85 455.464 466.828C455.464 463.828 455.034 461.163 454.174 458.834C453.313 456.505 452.033 454.679 450.334 453.357C448.634 452.035 446.515 451.375 443.976 451.375C441.542 451.375 439.475 452.015 437.776 453.294C436.076 454.574 434.786 456.368 433.905 458.676C433.044 460.985 432.614 463.702 432.614 466.828ZM497.922 491.944C493.201 491.944 489.11 490.906 485.647 488.828C482.185 486.751 479.5 483.845 477.59 480.11C475.702 476.375 474.758 472.011 474.758 467.017C474.758 462.023 475.702 457.648 477.59 453.892C479.5 450.137 482.185 447.22 485.647 445.143C489.11 443.065 493.201 442.027 497.922 442.027C502.643 442.027 506.735 443.065 510.197 445.143C513.659 447.22 516.334 450.137 518.223 453.892C520.132 457.648 521.087 462.023 521.087 467.017C521.087 472.011 520.132 476.375 518.223 480.11C516.334 483.845 513.659 486.751 510.197 488.828C506.735 490.906 502.643 491.944 497.922 491.944ZM497.985 482.817C500.545 482.817 502.685 482.114 504.406 480.708C506.126 479.281 507.406 477.372 508.246 474.98C509.106 472.588 509.536 469.923 509.536 466.986C509.536 464.027 509.106 461.352 508.246 458.96C507.406 456.547 506.126 454.627 504.406 453.2C502.685 451.773 500.545 451.06 497.985 451.06C495.362 451.06 493.18 451.773 491.439 453.2C489.718 454.627 488.428 456.547 487.567 458.96C486.728 461.352 486.308 464.027 486.308 466.986C486.308 469.923 486.728 472.588 487.567 474.98C488.428 477.372 489.718 479.281 491.439 480.708C493.18 482.114 495.362 482.817 497.985 482.817ZM530.757 491V442.656H541.804V450.714H542.308C543.189 447.923 544.7 445.772 546.84 444.261C549.001 442.73 551.467 441.964 554.237 441.964C554.866 441.964 555.569 441.995 556.345 442.058C557.143 442.1 557.804 442.174 558.328 442.279V452.759C557.846 452.592 557.08 452.445 556.031 452.319C555.002 452.172 554.006 452.098 553.041 452.098C550.963 452.098 549.096 452.55 547.438 453.452C545.802 454.333 544.511 455.561 543.567 457.134C542.623 458.708 542.151 460.523 542.151 462.579V491H530.757ZM592.635 442.656V451.469H564.843V442.656H592.635ZM571.705 431.074H583.098V476.459C583.098 477.991 583.329 479.166 583.79 479.984C584.273 480.782 584.903 481.327 585.679 481.621C586.455 481.915 587.315 482.061 588.26 482.061C588.973 482.061 589.624 482.009 590.211 481.904C590.82 481.799 591.281 481.705 591.596 481.621L593.516 490.528C592.907 490.738 592.037 490.969 590.904 491.22C589.791 491.472 588.428 491.619 586.812 491.661C583.958 491.745 581.388 491.315 579.101 490.371C576.814 489.405 574.999 487.916 573.656 485.901C572.334 483.887 571.684 481.369 571.705 478.348V431.074Z" fill="black"/>
<path fill-rule="evenodd" clip-rule="evenodd" d="M0 574H1007V1330H0V574ZM476.556 752C462.67 752 448.975 755.242 436.555 761.469C424.135 767.695 413.331 776.736 405 787.875C393.736 772.816 378.033 761.692 360.114 756.08C342.195 750.467 322.969 750.65 305.16 756.602C287.35 762.555 271.86 773.975 260.883 789.246C249.907 804.517 244 822.863 244 841.687C244 948.649 391.507 1033.11 399.087 1037.45L399.186 1037.5C400.96 1038.5 402.965 1039.02 405 1039C407.037 1039.03 409.045 1038.52 410.814 1037.5C423.213 1030.24 435.263 1022.4 446.93 1014.04C462.991 1055.43 500.931 1085.92 546.146 1090.61V1127.08H510.361C507.198 1127.08 504.163 1128.34 501.926 1130.59C499.689 1132.83 498.433 1135.87 498.433 1139.04C498.433 1142.21 499.689 1145.25 501.926 1147.5C504.163 1149.74 507.198 1151 510.361 1151H605.788C608.952 1151 611.986 1149.74 614.223 1147.5C616.46 1145.25 617.716 1142.21 617.716 1139.04C617.716 1135.87 616.46 1132.83 614.223 1130.59C611.986 1128.34 608.952 1127.08 605.788 1127.08H570.003V1090.61C593.246 1088.32 615.301 1079.22 633.413 1064.44C651.525 1049.66 664.891 1029.85 671.841 1007.5H677.358C693.176 1007.5 708.346 1001.2 719.531 989.987C730.716 978.774 737 963.566 737 947.708V923.792C737 917.449 734.487 911.365 730.013 906.88C725.539 902.395 719.47 899.875 713.143 899.875H677.358V887.917C677.358 881.574 674.845 875.49 670.371 871.005C665.897 866.52 659.829 864 653.501 864H563.927C565.308 856.534 566 849.095 566 841.687C566 817.901 556.576 795.088 539.802 778.269C523.028 761.449 500.278 752 476.556 752ZM702.619 973.032C709.321 966.313 713.104 957.211 713.143 947.708V923.792H677.358V971.625C677.386 975.619 677.187 979.612 676.762 983.583H677.358C686.837 983.544 695.916 979.752 702.619 973.032Z" fill="#20252B"/>
<path fill-rule="evenodd" clip-rule="evenodd" d="M563.927 864H462.648C456.32 864 450.252 866.52 445.778 871.005C441.304 875.49 438.791 881.574 438.791 887.917V899.875H402.857C396.53 899.875 390.461 902.395 385.987 906.88C381.513 911.365 379 917.449 379 923.792V947.708C379 963.566 385.284 978.774 396.469 989.987C407.654 1001.2 422.824 1007.5 438.642 1007.5H444.606C445.32 1009.71 446.095 1011.89 446.93 1014.04C461.069 1003.9 474.643 992.968 487.587 981.3C531.188 941.965 556.781 902.631 563.927 864ZM413.338 973.076C420.049 979.804 429.151 983.583 438.642 983.583H439.536C439.061 979.164 438.812 974.724 438.791 970.28V923.792H402.857V947.708C402.857 957.223 406.627 966.348 413.338 973.076Z" fill="#20252B"/>
</g>
<defs>
<radialGradient id="paint0_radial_2_26" cx="0" cy="0" r="1" gradientUnits="userSpaceOnUse" gradientTransform="translate(-106 489.147) rotate(2.25551) scale(1509.17 523.573)">
<stop stop-color="#AFEF98" stop-opacity="0.19"/>
<stop offset="1" stop-color="white" stop-opacity="0"/>
</radialGradient>
<radialGradient id="paint1_radial_2_26" cx="0" cy="0" r="1" gradientUnits="userSpaceOnUse" gradientTransform="translate(1007 44.2595) rotate(162.272) scale(1418.88 664.213)">
<stop stop-color="#E4FF7A"/>
<stop offset="1" stop-color="white" stop-opacity="0"/>
</radialGradient>
<radialGradient id="paint2_radial_2_26" cx="0" cy="0" r="1" gradientUnits="userSpaceOnUse" gradientTransform="translate(137.263 1097.51) rotate(3.10895) scale(865.341 413.42)">
<stop stop-color="#AFEF98" stop-opacity="0.61"/>
<stop offset="1" stop-color="white" stop-opacity="0"/>
</radialGradient>
<radialGradient id="paint3_radial_2_26" cx="0" cy="0" r="1" gradientUnits="userSpaceOnUse" gradientTransform="translate(775 745.972) rotate(156.21) scale(846.305 504.184)">
<stop stop-color="#E4FF7A"/>
<stop offset="1" stop-color="white" stop-opacity="0"/>
</radialGradient>
<clipPath id="clip0_2_26">
<rect width="1000" height="1330" fill="white"/>
</clipPath>
</defs>
</svg>
