<svg width="201" height="198" viewBox="0 0 201 198" fill="none" xmlns="http://www.w3.org/2000/svg">
<g clip-path="url(#clip0_6140_1493)">
<path d="M69.5 142C72.8772 142.014 76.1121 143.362 78.5002 145.75C80.8882 148.138 82.236 151.373 82.25 154.75C82.25 155.877 82.6978 156.958 83.4948 157.755C84.2918 158.552 85.3728 159 86.5 159C87.6272 159 88.7082 158.552 89.5052 157.755C90.3022 156.958 90.75 155.877 90.75 154.75C90.764 151.373 92.1118 148.138 94.4998 145.75C96.8879 143.362 100.123 142.014 103.5 142H137.5C139.754 142 141.916 141.104 143.51 139.51C145.104 137.916 146 135.754 146 133.5V65.5C146 63.2457 145.104 61.0837 143.51 59.4896C141.916 57.8955 139.754 57 137.5 57H112C106.364 57 100.959 59.2388 96.974 63.224C92.9888 67.2091 90.75 72.6141 90.75 78.25V80.75C90.75 81.8772 90.3022 82.9582 89.5052 83.7552C88.7082 84.5522 87.6272 85 86.5 85C85.3728 85 84.2918 84.5522 83.4948 83.7552C82.6978 82.9582 82.25 81.8772 82.25 80.75V78.25C82.25 72.6141 80.0112 67.2091 76.026 63.224C72.0409 59.2388 66.6359 57 61 57H35.5C33.2457 57 31.0837 57.8955 29.4896 59.4896C27.8955 61.0837 27 63.2457 27 65.5V133.5C27 135.754 27.8955 137.916 29.4896 139.51C31.0837 141.104 33.2457 142 35.5 142H69.5Z" fill="black"/>
<path d="M107.921 100.821L197.625 132.772C201.253 134.064 201.138 139.234 197.456 140.364L156.95 152.788C155.71 153.168 154.732 154.125 154.325 155.356L141.58 193.909C140.383 197.527 135.284 197.581 134.012 193.989L102.808 105.925C101.683 102.75 104.747 99.6907 107.921 100.821Z" fill="black"/>
<path fill-rule="evenodd" clip-rule="evenodd" d="M146 114.4L107.92 100.824C104.746 99.6922 101.681 102.75 102.806 105.926L115.575 142H137.5C139.754 142 141.916 141.104 143.51 139.51C145.104 137.916 146 135.754 146 133.5V114.4Z" fill="white"/>
<path d="M92.7622 23.8602L71.3593 2.41684C69.9181 0.939603 67.9627 0.0746879 65.8998 0.00204841C64.8529 -0.0220518 63.8121 0.166724 62.8404 0.55692C61.8687 0.947116 60.9864 1.5306 60.2471 2.27195L47.4923 14.9738L2.27075 60.227C1.55038 60.9416 0.978809 61.7918 0.589058 62.7285C0.199307 63.6653 -0.000900897 64.6699 3.04738e-06 65.6844V87.2727C3.04738e-06 89.3221 0.81443 91.2876 2.26412 92.7367C3.71381 94.1859 5.68001 95 7.73019 95H29.3264C31.3742 94.9912 33.3359 94.1756 34.7858 92.7301L92.7622 34.7751C94.1962 33.3203 95 31.36 95 29.3176C95 27.2753 94.1962 25.315 92.7622 23.8602V23.8602ZM77.3018 39.3149L55.7056 17.7266L65.7066 7.72939L87.3028 29.3176L77.3018 39.3149Z" fill="black"/>
<path fill-rule="evenodd" clip-rule="evenodd" d="M68.9752 58.5533C66.4653 57.5371 63.7603 57 61 57H35.5C33.2457 57 31.0837 57.8955 29.4896 59.4896C27.8955 61.0837 27 63.2457 27 65.5V95H29.3264C31.3742 94.9912 33.3359 94.1756 34.7858 92.7301L68.9752 58.5533Z" fill="white"/>
</g>
<defs>
<clipPath id="clip0_6140_1493">
<rect width="201" height="198" fill="white"/>
</clipPath>
</defs>
</svg>
