<svg width="84" height="70" viewBox="0 0 84 70" fill="none" xmlns="http://www.w3.org/2000/svg">
<mask id="mask0_6_88" style="mask-type:alpha" maskUnits="userSpaceOnUse" x="0" y="0" width="84" height="70">
<path fill-rule="evenodd" clip-rule="evenodd" d="M44.7991 16.808C45.1339 17.5893 46.0045 18.5045 46.8527 19.375C47.048 19.5792 47.2468 19.7872 47.4447 20H36.2308C35.0922 20.0047 33.9868 20.3206 33.0274 20.9004C33.0738 19.8801 32.9254 18.8557 32.5853 17.8832C32.0859 16.4553 31.1937 15.1973 30.0112 14.2539C28.8286 13.3106 27.4038 12.7202 25.9007 12.5507C24.3975 12.3811 22.877 12.6393 21.514 13.2955C20.1511 13.9518 19.001 14.9794 18.1961 16.2602C17.3913 17.541 16.9643 19.023 16.9643 20.5357C16.9643 21.0093 17.1524 21.4635 17.4873 21.7984C17.8222 22.1333 18.2764 22.3214 18.75 22.3214C19.2236 22.3214 19.6778 22.1333 20.0127 21.7984C20.3476 21.4635 20.5357 21.0093 20.5357 20.5357C20.5357 19.6528 20.7975 18.7896 21.2881 18.0555C21.7786 17.3213 22.4759 16.7491 23.2916 16.4113C24.1073 16.0734 25.005 15.985 25.8709 16.1572C26.7369 16.3295 27.5324 16.7546 28.1567 17.379C28.7811 18.0033 29.2063 18.7988 29.3785 19.6648C29.5508 20.5308 29.4624 21.4284 29.1245 22.2441C28.7866 23.0599 28.2144 23.7571 27.4802 24.2476C26.7461 24.7382 25.883 25 25 25C24.5264 25 24.0722 25.1881 23.7373 25.523C23.4024 25.8579 23.2143 26.3121 23.2143 26.7857V28.5714C23.2143 29.045 23.4024 29.4992 23.7373 29.8341C24.0722 30.169 24.5264 30.3571 25 30.3571C25.4736 30.3571 25.9278 30.169 26.2627 29.8341C26.5976 29.4992 26.7857 29.045 26.7857 28.5714V28.3705C27.963 28.1022 29.0608 27.573 30 26.8264V47.4447C28.6075 48.7403 27.0137 50 25 50C22.6786 50 20.9152 48.3259 19.375 46.8527C18.5045 46.0045 17.5446 45.0893 16.808 44.7991C16.0725 44.5094 14.8697 44.4867 13.6884 44.4644L13.683 44.4643C11.5179 44.442 9.04018 44.3973 7.32143 42.6786C5.60268 40.9598 5.55804 38.4821 5.53571 36.317C5.53328 36.1882 5.53138 36.0597 5.52949 35.9319C5.51402 34.8857 5.49927 33.8882 5.20089 33.192C4.86607 32.4107 3.99554 31.4955 3.14732 30.625C1.67411 29.0848 0 27.3214 0 25C0 22.6786 1.67411 20.9152 3.14732 19.375C3.99554 18.5045 4.91071 17.5446 5.20089 16.808C5.49063 16.0725 5.51332 14.8697 5.53561 13.6884L5.53571 13.683C5.55804 11.5179 5.60268 9.04018 7.32143 7.32143C9.04018 5.60268 11.5179 5.55804 13.683 5.53571C13.8118 5.53328 13.9403 5.53138 14.0681 5.52949C15.1143 5.51402 16.1118 5.49927 16.808 5.20089C17.5893 4.86607 18.5045 3.99554 19.375 3.14732C20.9152 1.67411 22.6786 0 25 0C27.3214 0 29.0848 1.67411 30.625 3.14732C31.4955 3.99554 32.4554 4.91071 33.192 5.20089C33.9275 5.49063 35.1303 5.51332 36.3116 5.53561L36.317 5.53571C38.4821 5.55804 40.9598 5.60268 42.6786 7.32143C44.3973 9.04018 44.442 11.5179 44.4643 13.683C44.4667 13.8118 44.4686 13.9403 44.4705 14.0681C44.486 15.1143 44.5007 16.1118 44.7991 16.808ZM23.5119 38.8343C23.9524 39.1286 24.4702 39.2857 25 39.2857C25.7104 39.2857 26.3917 39.0035 26.894 38.5012C27.3964 37.9988 27.6786 37.3175 27.6786 36.6071C27.6786 36.0774 27.5215 35.5595 27.2271 35.119C26.9328 34.6785 26.5145 34.3352 26.025 34.1325C25.5356 33.9297 24.997 33.8767 24.4774 33.98C23.9578 34.0834 23.4806 34.3385 23.106 34.7131C22.7314 35.0877 22.4762 35.565 22.3729 36.0846C22.2695 36.6042 22.3226 37.1427 22.5253 37.6322C22.7281 38.1216 23.0714 38.54 23.5119 38.8343Z" fill="#0B72FF"/>
<path fill-rule="evenodd" clip-rule="evenodd" d="M47.4447 20H77.7692C79.4196 20.0069 81.0005 20.6675 82.1675 21.8382C83.3345 23.0088 83.9932 24.5945 84 26.25V55.4167C83.9932 57.0722 83.3345 58.6579 82.1675 59.8285C81.0005 60.9991 79.4196 61.6598 77.7692 61.6667H59.0769V65.8333H65.3077C65.8585 65.8333 66.3868 66.0528 66.7763 66.4435C67.1658 66.8342 67.3846 67.3641 67.3846 67.9167C67.3846 68.4692 67.1658 68.9991 66.7763 69.3898C66.3868 69.7805 65.8585 70 65.3077 70H48.6923C48.1415 70 47.6132 69.7805 47.2237 69.3898C46.8342 68.9991 46.6154 68.4692 46.6154 67.9167C46.6154 67.3641 46.8342 66.8342 47.2237 66.4435C47.6132 66.0528 48.1415 65.8333 48.6923 65.8333H54.9231V61.6667H36.2308C34.5804 61.6598 32.9995 60.9991 31.8325 59.8285C30.6655 58.6579 30.0068 57.0722 30 55.4167V47.4447C30.2128 47.2468 30.4208 47.048 30.625 46.8527C31.4955 46.0045 32.4107 45.1339 33.192 44.7991C33.8882 44.5007 34.8857 44.486 35.9319 44.4705C36.0597 44.4686 36.1882 44.4667 36.317 44.4643C38.4821 44.442 40.9598 44.3973 42.6786 42.6786C44.3973 40.9598 44.442 38.4821 44.4643 36.317L44.4644 36.3116C44.4867 35.1303 44.5094 33.9275 44.7991 33.192C45.0893 32.4554 46.0045 31.4955 46.8527 30.625C48.3259 29.0848 50 27.3214 50 25C50 22.9863 48.7403 21.3925 47.4447 20ZM33.0274 20.9004C32.5962 21.1611 32.1944 21.4751 31.8325 21.8382C30.6655 23.0088 30.0068 24.5945 30 26.25V26.8264C30.2374 26.6377 30.4647 26.4351 30.6806 26.2194C31.7505 25.15 32.4969 23.8004 32.8338 22.3257C32.9413 21.8553 33.0057 21.3783 33.0274 20.9004ZM36.2308 57.5H77.7692C78.3201 57.5 78.8483 57.2805 79.2378 56.8898C79.6273 56.4991 79.8462 55.9692 79.8462 55.4167V51.25H34.1538V55.4167C34.1538 55.9692 34.3727 56.4991 34.7622 56.8898C35.1517 57.2805 35.6799 57.5 36.2308 57.5Z" fill="#0B72FF"/>
</mask>
<g mask="url(#mask0_6_88)">
<rect x="-8" width="97" height="89" fill="#F5F6F7"/>
<rect x="-8" width="97" height="89" fill="url(#paint0_radial_6_88)"/>
<rect x="-8" width="97" height="89" fill="url(#paint1_radial_6_88)" fill-opacity="0.5"/>
</g>
<defs>
<radialGradient id="paint0_radial_6_88" cx="0" cy="0" r="1" gradientUnits="userSpaceOnUse" gradientTransform="translate(-18.2105 71.3673) rotate(3.41407) scale(145.517 76.3137)">
<stop stop-color="#EF98CF" stop-opacity="0.48"/>
<stop offset="1" stop-color="white" stop-opacity="0"/>
</radialGradient>
<radialGradient id="paint1_radial_6_88" cx="0" cy="0" r="1" gradientUnits="userSpaceOnUse" gradientTransform="translate(89 6.45753) rotate(154.163) scale(144.643 91.5712)">
<stop stop-color="#FF837A"/>
<stop offset="1" stop-color="white" stop-opacity="0"/>
</radialGradient>
</defs>
</svg>
